HIERARCHY
ROOT Hips
{
	OFFSET 0.00 0.00 0.00
	CHANNELS 6 Xposition Yposition Zposition Xrotation Yrotation Zrotation
	JOINT LeftUpLeg
	{
		OFFSET 3.34807 0.00000 0.00000
		CHANNELS 3 Xrotation Yrotation Zrotation
		JOINT LeftLeg
		{
			OFFSET 0.00000 -16.98552 0.00000
			CHANNELS 3 Xrotation Yrotation Zrotation
			JOINT LeftFoot
			{
				OFFSET 0.00000 -16.83686 0.00000
				CHANNELS 3 Xrotation Yrotation Zrotation
				JOINT LeftToeBase
				{
					OFFSET 0.00000 -1.59599 5.95633
					CHANNELS 3 Xrotation Yrotation Zrotation
					End Site
					{
						OFFSET 0.00000 0.00000 2.95275
					}
				}
			}
		}
	}
	JOINT RightUpLeg
	{
		OFFSET -3.34807 0.00000 0.00000
		CHANNELS 3 Xrotation Yrotation Zrotation
		JOINT RightLeg
		{
			OFFSET 0.00000 -16.98552 0.00000
			CHANNELS 3 Xrotation Yrotation Zrotation
			JOINT RightFoot
			{
				OFFSET 0.00000 -16.83686 0.00000
				CHANNELS 3 Xrotation Yrotation Zrotation
				JOINT RightToeBase
				{
					OFFSET 0.00000 -1.59599 5.95633
					CHANNELS 3 Xrotation Yrotation Zrotation
					End Site
					{
						OFFSET 0.00000 0.00000 2.95275
					}
				}
			}
		}
	}
	JOINT Spine
	{
		OFFSET 0.00000 0.03937 0.00000
		CHANNELS 3 Xrotation Yrotation Zrotation
		JOINT Spine1
		{
			OFFSET 0.00000 7.93124 0.00000
			CHANNELS 3 Xrotation Yrotation Zrotation
			JOINT Neck
			{
				OFFSET 0.00000 8.48368 0.00000
				CHANNELS 3 Xrotation Yrotation Zrotation
				JOINT Head
				{
					OFFSET 0.00000 6.65077 0.00000
					CHANNELS 3 Xrotation Yrotation Zrotation
					End Site
					{
						OFFSET 0.00000 4.52755 0.00000
					}
				}
			}
			JOINT LeftShoulder
			{
				OFFSET 0.00000 8.48368 0.00000
				CHANNELS 3 Xrotation Yrotation Zrotation
				JOINT LeftArm
				{
					OFFSET 7.74502 -0.00003 0.00000
					CHANNELS 3 Xrotation Yrotation Zrotation
					JOINT LeftForeArm
					{
						OFFSET 12.49824 -0.00005 0.00000
						CHANNELS 3 Xrotation Yrotation Zrotation
						JOINT LeftHand
						{
							OFFSET 9.88337 -0.00004 0.00000
							CHANNELS 3 Xrotation Yrotation Zrotation
							JOINT LeftHandThumb
							{
								OFFSET 0.00000 0.00000 0.00000
								CHANNELS 3 Xrotation Yrotation Zrotation
								End Site
								{
									OFFSET 0.00000 0.00000 3.93700
								}
							}
							JOINT L_Wrist_End
							{
								OFFSET 3.93700 -0.00001 0.00000
								CHANNELS 3 Xrotation Yrotation Zrotation
							}
						}
					}
				}
			}
			JOINT RightShoulder
			{
				OFFSET 0.00000 8.48368 0.00000
				CHANNELS 3 Xrotation Yrotation Zrotation
				JOINT RightArm
				{
					OFFSET -7.74502 -0.00003 0.00000
					CHANNELS 3 Xrotation Yrotation Zrotation
					JOINT RightForeArm
					{
						OFFSET -12.49824 -0.00005 0.00000
						CHANNELS 3 Xrotation Yrotation Zrotation
						JOINT RightHand
						{
							OFFSET -9.88337 -0.00004 0.00000
							CHANNELS 3 Xrotation Yrotation Zrotation
							JOINT RightHandThumb
							{
								OFFSET 0.00000 0.00000 0.00000
								CHANNELS 3 Xrotation Yrotation Zrotation
								End Site
								{
									OFFSET 0.00000 0.00000 3.93700
								}
							}
							JOINT R_Wrist_End
							{
								OFFSET -5.39369 -0.00002 0.00000
								CHANNELS 3 Xrotation Yrotation Zrotation
							}
						}
					}
				}
			}
		}
	}
}
MOTION
Frames: 15
Frame Time: 0.066664
 -25.7484 31.9520 -7.0148 47.2637 -54.0128 32.4055 -55.6577 0.7801 7.0652 57.7687 -0.0000 0.0000 -31.1262 4.4160 -11.9933 3.5533 -0.0000 0.0000 -72.7407 -15.4956 -19.4322 50.9498 -0.0000 0.0000 15.2969 -7.1836 37.0042 -5.5342 0.0000 -0.0000 0.0063 -4.7633 -1.4523 36.7094 -8.8705 -2.5132 -10.0828 4.1655 4.5373 17.5299 -18.3666 -1.2428 -7.3671 11.9742 29.5947 17.2649 -45.2769 -55.4335 -0.0007 -73.5657 -0.0005 -1.4558 -31.6648 15.5719 -0.0000 0.0000 -0.0000 -0.0000 0.0000 -0.0000 22.7398 -19.4149 -9.7952 -21.9721 43.3457 91.4600 -0.0002 49.4897 0.0001 33.0035 -72.6204 -126.2690 -0.0000 0.0000 -0.0000 -0.0000 0.0000 -0.0000
 -24.9537 32.6280 -7.0621 47.3966 -54.4283 31.5953 -54.6646 1.7516 7.9125 53.0610 -0.0000 0.0000 -27.4422 2.9625 -12.0830 3.8815 0.0000 0.0000 -70.8718 -14.9210 -18.2645 57.2957 -0.0000 0.0000 14.0782 -9.5503 34.1345 -5.0659 0.0000 0.0000 0.1670 -4.7618 -1.3957 35.6833 -9.0710 -2.7802 -10.1336 5.0022 4.6889 17.3738 -17.3965 -0.9524 -7.0140 12.7679 29.3369 17.3848 -44.5754 -55.9468 -0.0006 -70.9631 -0.0004 -0.7430 -31.2700 15.1869 -0.0000 0.0000 -0.0000 -0.0000 0.0000 -0.0000 22.5362 -19.2672 -10.1765 -21.8336 44.0484 91.7719 -0.0002 48.9644 0.0001 34.5744 -72.3812 -124.2319 -0.0000 0.0000 -0.0000 -0.0000 0.0000 -0.0000
 -24.3653 33.1675 -6.9677 46.6403 -55.2962 30.3022 -52.2942 0.5473 7.2988 48.6860 -0.0000 0.0000 -24.8902 4.0589 -10.3497 3.7367 -0.0000 0.0000 -66.5076 -14.5887 -16.4668 61.2896 -0.0000 0.0000 12.8263 -11.3384 34.7924 -5.0499 -0.0000 0.0000 0.1137 -4.6056 -1.1685 34.4840 -8.8495 -2.8195 -9.7144 5.3190 4.6048 16.4744 -16.7068 -0.7591 10.0163 26.1802 19.4773 2.0877 -50.2470 -48.0818 -0.0005 -68.5534 -0.0004 -18.4006 -34.7817 35.0408 -0.0000 0.0000 -0.0000 -0.0000 0.0000 -0.0000 21.9808 -19.0737 -10.9354 -21.2103 43.7262 91.0301 -0.0002 47.8140 0.0001 38.7935 -71.3227 -122.1273 -0.0000 0.0000 -0.0000 -0.0000 0.0000 -0.0000
 -23.8430 33.3412 -6.8078 45.3023 -56.7460 29.1555 -50.4119 -0.6225 6.4384 46.9182 -0.0000 0.0000 -23.7775 4.9248 -8.3500 3.4394 -0.0000 -0.0000 -62.4787 -14.8428 -15.3593 65.8412 -0.0000 0.0000 10.5453 -9.4578 34.1897 -6.6818 0.0000 -0.0000 0.6327 -4.7018 -1.3790 32.8352 -8.7494 -2.6807 -9.8712 5.2804 4.3318 16.1285 -15.9932 -0.8271 5.6734 25.0158 21.7205 7.7168 -48.9962 -51.6039 -0.0005 -67.6827 -0.0003 -24.5870 -37.8247 41.3583 -0.0000 0.0000 -0.0000 -0.0000 0.0000 -0.0000 21.4569 -18.7631 -11.5451 -20.4921 43.2567 89.4103 -0.0002 47.4969 0.0001 40.8949 -70.2638 -120.7432 -0.0000 0.0000 -0.0000 -0.0000 0.0000 -0.0000
 -23.3183 33.2792 -6.6001 43.5961 -58.8582 28.5497 -48.8957 -0.3204 5.5694 46.8518 -0.0000 0.0000 -23.4478 5.5720 -6.4500 3.2914 0.0000 0.0000 -59.2596 -15.6301 -15.2466 70.7332 -0.0000 0.0000 9.6308 -9.0749 34.9666 -8.6564 0.0000 -0.0000 1.0657 -4.3698 -1.7083 31.8042 -8.7717 -3.2669 -9.8797 5.3935 4.2174 15.8266 -15.7316 -1.1962 0.6546 21.9688 24.4263 15.2252 -47.6647 -55.6530 -0.0005 -66.6269 -0.0003 -25.8708 -38.6035 41.8065 -0.0000 0.0000 -0.0000 -0.0000 0.0000 -0.0000 21.1744 -18.4629 -11.8401 -20.9812 42.4323 88.7596 -0.0002 47.2214 0.0001 39.8293 -70.7200 -121.8861 -0.0000 0.0000 -0.0000 -0.0000 0.0000 -0.0000
 -22.7294 32.9892 -6.4121 42.5234 -61.1575 28.3313 -48.7290 0.0413 5.0153 48.7341 -0.0000 0.0000 -23.9236 6.6396 -5.6431 4.0133 -0.0000 0.0000 -56.5363 -15.6978 -14.6228 73.9359 -0.0000 0.0000 9.5971 -8.5374 34.9978 -9.7919 0.0000 0.0000 1.3263 -3.9236 -1.9210 30.7866 -8.5448 -3.7287 -9.8141 5.2825 3.9356 15.4122 -15.4719 -1.2485 -1.3080 20.7046 25.3114 20.0806 -49.0329 -58.4401 -0.0004 -64.2691 -0.0003 -26.6489 -38.7950 40.3888 -0.0000 -0.0000 0.0000 -0.0000 -0.0000 0.0000 20.8649 -18.0876 -12.2259 -21.5551 41.8957 88.3166 -0.0002 47.0220 0.0001 40.2305 -70.3069 -121.9601 -0.0000 0.0000 -0.0000 -0.0000 0.0000 -0.0000
 -22.1585 32.4658 -6.2024 39.8050 -64.0459 26.9451 -48.6244 2.1260 5.0081 52.1047 -0.0000 0.0000 -24.6793 6.8175 -5.6870 4.4929 0.0000 0.0000 -53.2816 -15.2285 -14.4190 75.1070 -0.0000 0.0000 9.1821 -6.8298 35.2256 -12.7235 0.0000 -0.0000 1.5351 -3.4097 -2.3438 30.5343 -8.4391 -4.4161 -10.0960 5.3607 4.1105 15.2730 -15.5443 -1.5216 -2.4234 19.6260 25.8641 23.7994 -51.0367 -61.3977 -0.0004 -61.1752 -0.0002 -26.3917 -38.5018 37.7093 -0.0000 0.0000 -0.0000 -0.0000 0.0000 -0.0000 20.7042 -17.6221 -12.0562 -21.9765 42.5620 86.8678 -0.0002 46.6291 0.0001 39.9624 -70.2672 -122.0214 -0.0000 0.0000 -0.0000 -0.0000 0.0000 -0.0000
 -21.5468 32.2149 -5.9569 34.1355 -66.8506 23.1662 -46.5037 6.1920 5.1654 52.5856 -0.0000 0.0000 -24.2469 5.2914 -5.0717 4.7326 -0.0000 0.0000 -48.6929 -14.9495 -15.2530 72.7170 -0.0000 0.0000 6.3697 -5.1759 34.4374 -20.4328 -0.0000 -0.0000 1.7430 -3.1679 -2.7476 30.7435 -8.7266 -5.1839 -10.9626 4.9924 3.8325 15.6572 -15.0388 -1.3812 -1.1662 19.7077 27.0168 27.0606 -51.3410 -64.7907 -0.0004 -63.8139 -0.0003 -24.1653 -38.0815 40.2494 -0.0000 0.0000 -0.0000 -0.0000 0.0000 -0.0000 20.7676 -17.2382 -13.7189 -22.0706 44.5495 85.0331 -0.0002 48.0173 0.0001 38.4772 -71.4823 -124.7061 -0.0000 0.0000 -0.0000 -0.0000 0.0000 -0.0000
 -20.3886 33.5774 -5.7021 30.5011 -63.5901 22.8093 -40.2624 12.1364 1.3522 37.7827 0.0000 0.0000 -14.7028 -1.5011 -8.5229 5.9866 -0.0000 0.0000 -45.5070 -18.7512 -19.9970 60.4029 -0.0000 0.0000 7.2573 -4.7577 35.8040 -19.0305 0.0000 -0.0000 2.8491 -3.1861 -2.9025 27.5602 -8.1498 -4.7198 -11.5798 3.5853 3.4765 18.6501 -16.9304 -2.4820 -1.6730 19.0148 28.3773 35.6804 -54.3731 -58.1697 -0.0007 -72.3942 -0.0005 -10.4622 -31.8811 15.3081 -0.0000 0.0000 -0.0000 -0.0000 0.0000 -0.0000 22.2775 -17.9138 -15.0974 -17.2643 44.8370 82.6931 -0.0003 54.0064 0.0001 33.3773 -73.6361 -128.9473 -0.0000 0.0000 -0.0000 -0.0000 0.0000 -0.0000
 -18.7310 35.5304 -5.8456 31.5866 -55.4502 23.1072 -38.5901 7.8378 -0.5606 29.4931 -0.0000 0.0000 -10.0864 -5.5182 -35.2441 0.8641 0.0000 0.0000 -43.8155 -22.0856 -19.8951 45.5149 -0.0000 0.0000 15.6893 -8.0241 39.1137 -15.8741 0.0000 -0.0000 2.2872 -4.5243 -1.2871 25.5719 -7.8315 -2.0592 -13.3870 2.1203 4.7139 21.8912 -20.4668 -1.7916 -3.7823 15.7235 29.6582 32.5360 -56.7306 -57.2223 -0.0008 -75.0596 -0.0006 -21.5392 -32.5422 28.2716 -0.0000 0.0000 -0.0000 -0.0000 0.0000 -0.0000 22.9788 -19.4049 -12.9114 -14.4760 46.4421 80.5208 -0.0003 56.5946 0.0002 42.1016 -71.4953 -120.9148 -0.0000 0.0000 -0.0000 -0.0000 0.0000 -0.0000
 -17.0773 35.8263 -5.9101 33.9096 -57.1483 25.7014 -39.3287 -0.4771 3.1260 54.0888 -0.0000 0.0000 -13.9986 5.7974 -17.2646 -1.3039 -0.0000 0.0000 -44.5634 -18.9423 -18.4475 41.4474 -0.0000 0.0000 19.7072 -9.4415 38.5262 -14.1092 0.0000 0.0000 1.2890 -4.3677 -1.3956 25.9394 -8.0123 -2.5296 -10.6299 2.9597 4.1391 22.9426 -20.8336 -1.0105 -4.9913 16.0284 27.7792 25.7165 -53.8757 -58.2308 -0.0008 -75.5181 -0.0006 -6.1156 -28.9730 9.9385 -0.0000 0.0000 -0.0000 -0.0000 0.0000 -0.0000 21.6959 -18.5379 -13.0314 -16.5522 44.8376 82.8374 -0.0003 55.5006 0.0002 32.9487 -74.4424 -130.7137 -0.0000 0.0000 -0.0000 -0.0000 0.0000 -0.0000
 -15.0422 34.9146 -5.9988 39.9459 -59.0642 31.5733 -33.9399 -2.7536 6.2461 47.0308 -0.0000 0.0000 -14.0597 3.6075 -16.6556 -18.1827 0.0000 0.0000 -52.2880 -19.2738 -20.3959 43.9112 -0.0000 0.0000 18.0241 -6.8155 34.6171 -10.7413 0.0000 -0.0000 1.1220 -4.0878 -1.4115 27.1871 -8.1321 -3.1558 -9.4906 3.9630 3.3979 21.3189 -19.5496 -1.7954 -6.5745 17.3662 26.5956 11.4910 -43.8418 -68.6506 -0.0008 -74.7207 -0.0006 -15.3990 -36.6195 35.1426 -0.0000 -0.0000 0.0000 -0.0000 -0.0000 0.0000 20.8392 -18.1926 -13.0408 -17.6700 40.6061 84.9631 -0.0003 57.5717 0.0002 14.5242 -77.7232 -149.1241 -0.0000 0.0000 -0.0000 -0.0000 0.0000 -0.0000
 -12.4828 33.3684 -6.0928 45.3012 -57.1655 37.3553 -40.3327 -0.9604 4.2230 47.3353 -0.0000 0.0000 -27.2488 4.5013 -16.7795 -0.4266 -0.0000 0.0000 -62.8701 -14.9577 -23.1854 49.6313 -0.0000 0.0000 15.6633 -7.4281 35.2129 -7.8390 0.0000 -0.0000 1.0729 -4.1597 -1.2069 29.1610 -8.7856 -3.8722 -9.1621 4.2720 3.6288 17.5258 -18.9755 -2.0262 -7.8395 15.9083 26.6268 2.9650 -34.2868 -74.6538 -0.0011 -78.9040 -0.0009 2.6144 -34.7673 22.1010 -0.0000 -0.0000 0.0000 -0.0000 -0.0000 0.0000 21.7996 -18.2658 -12.4778 -19.5583 39.1072 86.0978 -0.0004 59.2270 0.0002 6.1743 -77.8271 -156.4956 -0.0000 0.0000 -0.0000 -0.0000 0.0000 -0.0000
 -10.4796 32.3492 -6.1885 48.3194 -57.5408 39.7200 -47.3170 -1.4126 3.1401 53.6770 -0.0000 0.0000 -31.8265 5.8180 -13.5697 2.3261 -0.0000 0.0000 -68.1425 -12.8014 -23.2315 51.2953 -0.0000 0.0000 17.0443 -6.9967 35.6069 -6.8074 0.0000 -0.0000 0.4550 -3.7093 -1.4722 32.9832 -8.4689 -3.9227 -9.6313 4.6858 4.3685 18.0661 -17.9203 -1.5311 -8.4707 14.7159 26.8589 -2.6350 -28.7502 -77.6259 -0.0010 -78.6037 -0.0009 4.9213 -36.7818 26.8373 -0.0000 -0.0000 0.0000 -0.0000 -0.0000 0.0000 21.1626 -17.1094 -12.0095 -23.0871 39.9119 88.7135 -0.0003 54.0574 0.0001 -3.2832 -77.7915 -161.2246 -0.0000 0.0000 -0.0000 -0.0000 0.0000 -0.0000
 -9.1640 31.9100 -6.0830 47.0870 -58.4751 38.4834 -50.0238 -1.6948 1.7505 57.0625 -0.0000 0.0000 -32.1532 6.4489 -10.6926 2.7006 -0.0000 0.0000 -68.1443 -13.4406 -23.7956 48.6883 -0.0000 0.0000 17.4942 -6.7938 35.5641 -4.3132 0.0000 0.0000 0.1390 -3.8949 -1.5859 35.3663 -8.7055 -3.7903 -9.4275 5.0988 4.7982 18.7065 -17.8120 -1.2203 -8.6119 13.6305 27.1116 -3.5162 -26.1018 -77.6517 -0.0009 -76.2693 -0.0007 4.5694 -34.7771 24.5243 -0.0000 0.0000 -0.0000 -0.0000 0.0000 -0.0000 21.2682 -17.2207 -11.2937 -24.0368 38.5085 90.5324 -0.0003 52.0360 0.0001 -8.0602 -77.9334 -165.1245 -0.0000 0.0000 -0.0000 -0.0000 0.0000 -0.0000
